<?xml version="1.0" encoding="UTF-8" standalone="no"?> <svg width="64" height="64" viewBox="0 0 64 64" fill="none" xmlns="http://www.w3.org/2000/svg">
<path d="M57.37 32.3899C57.187 32.3923 57.0082 32.4448 56.8531 32.5418C56.6979 32.6388 56.5723 32.7765 56.49 32.9399H7.48998C7.38535 32.7457 7.21947 32.5916 7.01815 32.5015C6.81684 32.4115 6.59139 32.3904 6.3769 32.4418C6.16241 32.4931 5.97091 32.6139 5.8322 32.7854C5.6935 32.9569 5.61537 33.1694 5.60999 33.3899V59.9999C5.60999 60.2651 5.71534 60.5195 5.90288 60.707C6.09041 60.8945 6.34477 60.9999 6.60999 60.9999H57.37C57.6352 60.9999 57.8896 60.8945 58.0771 60.707C58.2646 60.5195 58.37 60.2651 58.37 59.9999V33.3899C58.37 33.1247 58.2646 32.8703 58.0771 32.6828C57.8896 32.4952 57.6352 32.3899 57.37 32.3899Z" fill="url(#paint0_linear)"/>
<path d="M51.9899 35.49H36.0699C35.5177 35.49 35.0699 35.9377 35.0699 36.49V60C35.0699 60.5523 35.5177 61 36.0699 61H51.9899C52.5422 61 52.9899 60.5523 52.9899 60V36.49C52.9899 35.9377 52.5422 35.49 51.9899 35.49Z" fill="url(#paint1_linear)"/>
<path d="M31.33 35.49H11.27C10.7177 35.49 10.27 35.9377 10.27 36.49V52.89C10.27 53.4423 10.7177 53.89 11.27 53.89H31.33C31.8823 53.89 32.33 53.4423 32.33 52.89V36.49C32.33 35.9377 31.8823 35.49 31.33 35.49Z" fill="url(#paint2_linear)"/>
<path d="M10.22 24.45H4C3.73478 24.45 3.48043 24.5553 3.29289 24.7428C3.10536 24.9304 3 25.1847 3 25.45V31.45C3 32.2297 3.30975 32.9775 3.86111 33.5288C4.41246 34.0802 5.16026 34.3899 5.94 34.3899H8.28C9.05974 34.3899 9.80754 34.0802 10.3589 33.5288C10.9103 32.9775 11.22 32.2297 11.22 31.45V25.45C11.22 25.1847 11.1146 24.9304 10.9271 24.7428C10.7396 24.5553 10.4852 24.45 10.22 24.45Z" fill="url(#paint3_linear)"/>
<path d="M22.6699 24.45H16.4399C16.1747 24.45 15.9204 24.5553 15.7328 24.7428C15.5453 24.9304 15.4399 25.1847 15.4399 25.45V31.45C15.4399 32.2297 15.7497 32.9775 16.301 33.5288C16.8524 34.0802 17.6002 34.3899 18.3799 34.3899H20.7299C21.5097 34.3899 22.2575 34.0802 22.8088 33.5288C23.3602 32.9775 23.6699 32.2297 23.6699 31.45V25.45C23.6699 25.1847 23.5646 24.9304 23.377 24.7428C23.1895 24.5553 22.9352 24.45 22.6699 24.45Z" fill="url(#paint4_linear)"/>
<path d="M35.11 24.45H28.89C28.6248 24.45 28.3704 24.5553 28.1829 24.7428C27.9954 24.9304 27.89 25.1847 27.89 25.45V31.45C27.89 32.2297 28.1998 32.9775 28.7511 33.5288C29.3025 34.0802 30.0503 34.3899 30.83 34.3899H33.17C33.9497 34.3899 34.6976 34.0802 35.2489 33.5288C35.8003 32.9775 36.11 32.2297 36.11 31.45V25.45C36.11 25.1847 36.0047 24.9304 35.8171 24.7428C35.6296 24.5553 35.3752 24.45 35.11 24.45Z" fill="url(#paint5_linear)"/>
<path d="M47.56 24.45H41.33C41.0647 24.45 40.8104 24.5553 40.6228 24.7428C40.4353 24.9304 40.33 25.1847 40.33 25.45V31.45C40.33 32.2297 40.6397 32.9775 41.1911 33.5288C41.7424 34.0802 42.4902 34.3899 43.27 34.3899H45.62C46.3997 34.3899 47.1475 34.0802 47.6988 33.5288C48.2502 32.9775 48.56 32.2297 48.56 31.45V25.45C48.56 25.1847 48.4546 24.9304 48.2671 24.7428C48.0795 24.5553 47.8252 24.45 47.56 24.45Z" fill="url(#paint6_linear)"/>
<path d="M60 24.45H53.78C53.5148 24.45 53.2605 24.5553 53.0729 24.7428C52.8854 24.9304 52.78 25.1847 52.78 25.45V31.45C52.78 32.2297 53.0898 32.9775 53.6411 33.5288C54.1925 34.0802 54.9403 34.3899 55.72 34.3899H58.06C58.8398 34.3899 59.5876 34.0802 60.1389 33.5288C60.6903 32.9775 61 32.2297 61 31.45V25.45C61 25.1847 60.8947 24.9304 60.7071 24.7428C60.5196 24.5553 60.2652 24.45 60 24.45Z" fill="url(#paint7_linear)"/>
<path d="M16.44 24.45H10.22C9.95475 24.45 9.7004 24.5553 9.51286 24.7428C9.32533 24.9304 9.21997 25.1847 9.21997 25.45V31.45C9.21997 32.2297 9.52972 32.9775 10.0811 33.5288C10.6324 34.0802 11.3802 34.3899 12.16 34.3899H14.51C15.288 34.3873 16.0332 34.0764 16.5824 33.5253C17.1316 32.9742 17.44 32.228 17.44 31.45V25.45C17.44 25.1847 17.3346 24.9304 17.1471 24.7428C16.9595 24.5553 16.7052 24.45 16.44 24.45Z" fill="url(#paint8_linear)"/>
<path d="M28.89 24.45H22.67C22.4048 24.45 22.1505 24.5553 21.9629 24.7429C21.7754 24.9304 21.67 25.1848 21.67 25.45V31.45C21.67 32.228 21.9784 32.9743 22.5276 33.5253C23.0768 34.0764 23.822 34.3873 24.6 34.39H27C27.3861 34.39 27.7684 34.3139 28.1251 34.1662C28.4818 34.0184 28.8059 33.8019 29.0789 33.5289C29.3519 33.2559 29.5685 32.9318 29.7162 32.5751C29.864 32.2184 29.94 31.8361 29.94 31.45V25.45C29.9402 25.3143 29.9128 25.1801 29.8594 25.0554C29.8061 24.9307 29.7279 24.8181 29.6297 24.7246C29.5315 24.631 29.4153 24.5585 29.2881 24.5113C29.1609 24.464 29.0255 24.4432 28.89 24.45V24.45Z" fill="url(#paint9_linear)"/>
<path d="M41.33 24.45H35.11C34.8448 24.45 34.5904 24.5553 34.4029 24.7428C34.2153 24.9304 34.11 25.1847 34.11 25.45V31.45C34.11 32.2297 34.4197 32.9775 34.9711 33.5288C35.5224 34.0802 36.2702 34.3899 37.05 34.3899H39.39C40.1697 34.3899 40.9175 34.0802 41.4689 33.5288C42.0202 32.9775 42.33 32.2297 42.33 31.45V25.45C42.33 25.1847 42.2246 24.9304 42.0371 24.7428C41.8496 24.5553 41.5952 24.45 41.33 24.45Z" fill="url(#paint10_linear)"/>
<path d="M53.7801 24.45H47.5601C47.2948 24.45 47.0405 24.5553 46.853 24.7428C46.6654 24.9304 46.5601 25.1847 46.5601 25.45V31.45C46.5601 32.228 46.8684 32.9742 47.4176 33.5253C47.9668 34.0764 48.7121 34.3873 49.4901 34.3899H51.8401C52.6198 34.3899 53.3676 34.0802 53.919 33.5288C54.4703 32.9775 54.7801 32.2297 54.7801 31.45V25.45C54.7801 25.1847 54.6747 24.9304 54.4872 24.7428C54.2996 24.5553 54.0453 24.45 53.7801 24.45Z" fill="url(#paint11_linear)"/>
<path d="M60.81 24.8701L54.81 16.5201C54.718 16.3909 54.5966 16.2854 54.4557 16.2123C54.3149 16.1393 54.1587 16.1008 54 16.1001H42.14C42.0017 16.0997 41.8648 16.1279 41.7379 16.1831C41.6111 16.2383 41.4971 16.3192 41.4031 16.4207C41.3091 16.5222 41.2372 16.6421 41.1919 16.7728C41.1466 16.9035 41.129 17.0422 41.14 17.1801H22.84C22.8511 17.0422 22.8334 16.9035 22.7882 16.7728C22.7429 16.6421 22.671 16.5222 22.577 16.4207C22.483 16.3192 22.369 16.2383 22.2421 16.1831C22.1153 16.1279 21.9784 16.0997 21.84 16.1001H10C9.84138 16.1008 9.68518 16.1393 9.54434 16.2123C9.40349 16.2854 9.28205 16.3909 9.19003 16.5201L3.19003 24.8701C3.08376 25.0194 3.02054 25.1949 3.00727 25.3777C2.99399 25.5604 3.03118 25.7433 3.11476 25.9063C3.19835 26.0694 3.32512 26.2063 3.48123 26.3022C3.63735 26.3981 3.81681 26.4493 4.00003 26.4501H60C60.1832 26.4493 60.3627 26.3981 60.5188 26.3022C60.6749 26.2063 60.8017 26.0694 60.8853 25.9063C60.9689 25.7433 61.0061 25.5604 60.9928 25.3777C60.9795 25.1949 60.9163 25.0194 60.81 24.8701Z" fill="url(#paint12_linear)"/>
<path d="M39.93 3H24.07C22.2972 3 20.86 4.43717 20.86 6.21V19.49C20.86 21.2628 22.2972 22.7 24.07 22.7H39.93C41.7028 22.7 43.14 21.2628 43.14 19.49V6.21C43.14 4.43717 41.7028 3 39.93 3Z" fill="url(#paint13_linear)"/>
<path d="M36.94 10.5299H34.32C34.32 6.41992 34.75 6.91992 30.68 6.90992C30.4148 6.90992 30.1604 7.01528 29.9729 7.20282C29.7854 7.39035 29.68 7.64471 29.68 7.90992V10.5299C25.56 10.5299 26.08 10.1099 26.06 14.1799C26.06 14.4451 26.1654 14.6995 26.3529 14.887C26.5405 15.0746 26.7948 15.1799 27.06 15.1799H29.68C29.68 19.2899 29.25 18.7899 33.32 18.7999C33.5852 18.7999 33.8396 18.6946 34.0271 18.507C34.2147 18.3195 34.32 18.0651 34.32 17.7999V15.1799H36.94C37.2052 15.1799 37.4596 15.0746 37.6471 14.887C37.8347 14.6995 37.94 14.4451 37.94 14.1799V11.5299C37.94 11.2647 37.8347 11.0104 37.6471 10.8228C37.4596 10.6353 37.2052 10.5299 36.94 10.5299Z" fill="url(#paint14_linear)"/>
<defs>
<linearGradient id="paint0_linear" x1="5.62999" y1="46.6999" x2="58.37" y2="46.6999" gradientUnits="userSpaceOnUse">
<stop stop-color="#EDD06D"/>
<stop offset="0.35" stop-color="#E0B858"/>
<stop offset="1" stop-color="#C2822A"/>
</linearGradient>
<linearGradient id="paint1_linear" x1="35.0699" y1="48.25" x2="52.9899" y2="48.25" gradientUnits="userSpaceOnUse">
<stop stop-color="#00ADEE"/>
<stop offset="0.4" stop-color="#0070B4"/>
<stop offset="1" stop-color="#2E3191"/>
</linearGradient>
<linearGradient id="paint2_linear" x1="236.826" y1="857.786" x2="723.249" y2="857.786" gradientUnits="userSpaceOnUse">
<stop stop-color="#00ADEE"/>
<stop offset="0.4" stop-color="#0070B4"/>
<stop offset="1" stop-color="#2E3191"/>
</linearGradient>
<linearGradient id="paint3_linear" x1="3" y1="29.42" x2="11.22" y2="29.42" gradientUnits="userSpaceOnUse">
<stop stop-color="#FFCC05"/>
<stop offset="1" stop-color="#F9A31A"/>
</linearGradient>
<linearGradient id="paint4_linear" x1="142.511" y1="316.885" x2="210.244" y2="316.885" gradientUnits="userSpaceOnUse">
<stop stop-color="#FFCC05"/>
<stop offset="1" stop-color="#F9A31A"/>
</linearGradient>
<linearGradient id="paint5_linear" x1="257.146" y1="316.885" x2="324.714" y2="316.885" gradientUnits="userSpaceOnUse">
<stop stop-color="#FFCC05"/>
<stop offset="1" stop-color="#F9A31A"/>
</linearGradient>
<linearGradient id="paint6_linear" x1="372.246" y1="316.885" x2="439.979" y2="316.885" gradientUnits="userSpaceOnUse">
<stop stop-color="#FFCC05"/>
<stop offset="1" stop-color="#F9A31A"/>
</linearGradient>
<linearGradient id="paint7_linear" x1="486.632" y1="316.885" x2="554.2" y2="316.885" gradientUnits="userSpaceOnUse">
<stop stop-color="#FFCC05"/>
<stop offset="1" stop-color="#F9A31A"/>
</linearGradient>
<linearGradient id="paint8_linear" x1="9.21997" y1="29.42" x2="17.44" y2="29.42" gradientUnits="userSpaceOnUse">
<stop stop-color="#E55DA1"/>
<stop offset="0.39" stop-color="#CA2027"/>
<stop offset="0.56" stop-color="#B52022"/>
<stop offset="0.9" stop-color="#7E2115"/>
<stop offset="1" stop-color="#6D2111"/>
</linearGradient>
<linearGradient id="paint9_linear" x1="200.881" y1="316.92" x2="268.86" y2="316.92" gradientUnits="userSpaceOnUse">
<stop stop-color="#E55DA1"/>
<stop offset="0.39" stop-color="#CA2027"/>
<stop offset="0.56" stop-color="#B52022"/>
<stop offset="0.9" stop-color="#7E2115"/>
<stop offset="1" stop-color="#6D2111"/>
</linearGradient>
<linearGradient id="paint10_linear" x1="314.494" y1="316.885" x2="382.063" y2="316.885" gradientUnits="userSpaceOnUse">
<stop stop-color="#E55DA1"/>
<stop offset="0.39" stop-color="#CA2027"/>
<stop offset="0.56" stop-color="#B52022"/>
<stop offset="0.9" stop-color="#7E2115"/>
<stop offset="1" stop-color="#6D2111"/>
</linearGradient>
<linearGradient id="paint11_linear" x1="429.283" y1="316.885" x2="496.852" y2="316.885" gradientUnits="userSpaceOnUse">
<stop stop-color="#E55DA1"/>
<stop offset="0.39" stop-color="#CA2027"/>
<stop offset="0.56" stop-color="#B52022"/>
<stop offset="0.9" stop-color="#7E2115"/>
<stop offset="1" stop-color="#6D2111"/>
</linearGradient>
<linearGradient id="paint12_linear" x1="3.00003" y1="21.2801" x2="61" y2="21.2801" gradientUnits="userSpaceOnUse">
<stop stop-color="#31446D"/>
<stop offset="0.41" stop-color="#243355"/>
<stop offset="1" stop-color="#0F152C"/>
</linearGradient>
<linearGradient id="paint13_linear" x1="485.621" y1="256.145" x2="982.019" y2="256.145" gradientUnits="userSpaceOnUse">
<stop stop-color="#E55DA1"/>
<stop offset="0.39" stop-color="#CA2027"/>
<stop offset="0.56" stop-color="#B52022"/>
<stop offset="0.9" stop-color="#7E2115"/>
<stop offset="1" stop-color="#6D2111"/>
</linearGradient>
<linearGradient id="paint14_linear" x1="26.05" y1="12.8499" x2="37.94" y2="12.8499" gradientUnits="userSpaceOnUse">
<stop stop-color="#FDFBF7"/>
<stop offset="0.35" stop-color="#F5F0DF"/>
<stop offset="1" stop-color="#E3D7A9"/>
</linearGradient>
</defs>
</svg>
